# xmcd
#
# Track frame offsets:
#	150
#	20385
#	32000
#	44831
#	60115
#	75677
#	93410
#	109748
#	120416
#	131631
#	149658
#	162213
#	179776
#	197059
#	211272
#
# Disc length: 2967 seconds
#
# Revision: 0
# Processed by: cddbd v1.5.2PL0 Copyright (c) Steve Scherf et al.
# Submitted via: SynApp - FreeCDDB Version: 2.4
#
DISCID=d20b950f
DTITLE=Celtic Woman - A Christmas Celebration
DYEAR=2006
DGENRE=Celtic
TTITLE0=O Holy Night
TTITLE1=Away In A Manger
TTITLE2=Ding Dong Merrily On High
TTITLE3=White Christmas
TTITLE4=Silent Night
TTITLE5=Christmas Pipes
TTITLE6=The Christmas Song
TTITLE7=Carol of the Bells
TTITLE8=Have Yourself a Merry Little C
TTITLE9=Panis Angelicus
TTITLE10=Don Oiche d I MBeithil (That N
TTITLE11=O Come All Ye Faithful
TTITLE12=The Little Drummer Boy
TTITLE13=The Wexford Carol
TTITLE14=Let It Snow
EXTD=
EXTT0=
EXTT1=
EXTT2=
EXTT3=
EXTT4=
EXTT5=
EXTT6=
EXTT7=
EXTT8=
EXTT9=
EXTT10=
EXTT11=
EXTT12=
EXTT13=
EXTT14=
PLAYORDER=
